<?xml version="1.0" standalone="no"?>
<!DOCTYPE svg PUBLIC "-//W3C//DTD SVG 20010904//EN"
 "http://www.w3.org/TR/2001/REC-SVG-20010904/DTD/svg10.dtd">
<svg version="1.0" xmlns="http://www.w3.org/2000/svg"
 width="260.000000pt" height="239.000000pt" viewBox="0 0 260.000000 239.000000"
 preserveAspectRatio="xMidYMid meet">

<g transform="translate(0.000000,239.000000) scale(0.100000,-0.100000)"
fill="#000000" stroke="none">
<path d="M1242 2370 c-45 -28 -52 -54 -52 -183 l0 -112 -73 -27 c-91 -34 -178
-103 -232 -185 -64 -95 -77 -149 -73 -296 3 -119 4 -126 40 -199 76 -152 219
-251 391 -269 139 -16 192 -34 247 -85 83 -78 116 -204 81 -307 -22 -63 -84
-132 -148 -163 -57 -28 -62 -29 -271 -34 l-214 -5 -24 -28 c-35 -41 -33 -99 5
-138 29 -29 30 -29 150 -29 l121 0 0 -109 c0 -127 8 -154 52 -181 42 -26 92
-20 127 15 25 24 26 32 29 153 l4 127 71 27 c134 51 252 174 290 303 10 33 23
76 29 96 12 43 7 101 -16 183 -27 95 -73 171 -145 238 -86 80 -165 117 -285
130 -132 14 -186 32 -239 78 -156 138 -124 386 61 477 56 27 61 28 270 33
l214 5 24 28 c17 20 24 40 24 72 0 36 -5 47 -31 69 -29 25 -36 26 -149 26
l-118 0 -4 125 c-3 118 -4 126 -29 150 -35 35 -85 41 -127 15z"/>
</g>
</svg>
