<?xml version="1.0" standalone="no"?>
<!DOCTYPE svg PUBLIC "-//W3C//DTD SVG 20010904//EN"
 "http://www.w3.org/TR/2001/REC-SVG-20010904/DTD/svg10.dtd">
<svg version="1.0" xmlns="http://www.w3.org/2000/svg"
 width="512.000000pt" height="512.000000pt" viewBox="0 0 512.000000 512.000000"
 preserveAspectRatio="xMidYMid meet">

<g transform="translate(0.000000,512.000000) scale(0.100000,-0.100000)"
fill="#000000" stroke="none">
<path d="M3625 4923 c-68 -8 -185 -37 -265 -65 -494 -173 -820 -645 -880
-1273 -5 -60 -13 -144 -16 -186 l-5 -76 -322 -6 c-583 -12 -1049 -37 -1222
-67 -196 -34 -345 -95 -476 -196 -165 -126 -279 -345 -279 -534 0 -130 59
-292 139 -382 l42 -47 -37 -48 c-43 -55 -96 -167 -113 -235 -53 -219 12 -459
167 -617 37 -37 80 -77 95 -87 l28 -20 -12 -69 c-48 -277 80 -538 336 -684
166 -95 329 -131 627 -138 809 -20 1627 222 2096 619 153 130 281 281 384 451
51 85 55 89 118 116 135 57 275 174 355 298 22 34 45 68 50 77 8 13 52 17 245
26 129 5 281 10 337 10 l103 0 0 410 0 411 -87 -5 c-49 -3 -221 -8 -383 -11
l-296 -6 -32 40 c-39 48 -140 122 -208 152 -27 11 -80 27 -118 33 l-70 12 -34
85 c-49 124 -62 195 -69 379 -5 148 7 352 23 395 3 7 74 47 157 88 297 147
466 286 549 453 41 84 43 91 43 178 0 81 -3 98 -32 158 -84 179 -293 309 -568
353 -81 13 -292 18 -370 8z m425 -153 c182 -45 337 -148 392 -259 102 -206
-130 -466 -593 -665 -102 -44 -145 -77 -135 -102 3 -7 -1 -62 -9 -121 -33
-250 -12 -562 50 -721 30 -79 82 -247 99 -322 4 -19 23 -34 81 -63 72 -35 75
-36 70 -15 -45 204 -45 189 3 176 150 -41 277 -174 339 -355 38 -113 44 -268
14 -378 -31 -110 -85 -208 -159 -287 -59 -62 -157 -136 -167 -126 -3 2 2 36 9
74 8 38 16 93 19 122 l4 54 -73 -73 c-68 -68 -74 -78 -99 -158 -34 -110 -103
-242 -178 -345 -83 -113 -294 -319 -402 -392 -251 -171 -538 -294 -886 -379
-336 -82 -558 -109 -914 -109 -244 0 -280 2 -375 23 -187 40 -311 103 -412
209 -99 103 -144 230 -135 375 3 43 7 81 10 84 3 2 43 -5 89 -16 183 -46 353
-37 616 30 178 45 201 54 221 91 14 25 14 29 -5 55 -12 15 -30 29 -40 31 -11
2 -74 -13 -141 -32 -182 -53 -283 -69 -418 -69 -137 0 -223 17 -325 66 -78 37
-192 147 -233 224 -32 61 -67 189 -67 247 1 108 55 259 123 339 l32 38 46 -19
c187 -81 597 -96 839 -31 167 44 212 76 190 134 -17 46 -48 50 -135 20 -216
-74 -537 -85 -773 -24 -189 48 -292 162 -325 358 -39 235 149 501 428 606 95
36 217 61 355 74 185 17 767 41 1135 46 l340 5 23 26 c20 23 22 35 22 145 0
214 30 405 96 609 142 441 462 733 893 815 110 21 349 13 461 -15z"/>
<path d="M2740 2994 c-97 -42 -159 -170 -160 -326 l0 -57 103 -92 c56 -50 101
-95 99 -101 -1 -5 -33 -58 -71 -117 -100 -156 -95 -143 -76 -208 53 -183 156
-277 285 -259 91 13 150 81 187 217 14 50 18 102 17 234 -1 244 -38 464 -99
584 -25 51 -90 116 -131 131 -37 15 -114 11 -154 -6z"/>
<path d="M2007 2947 c-106 -33 -164 -137 -181 -324 l-5 -61 104 -92 c58 -51
105 -97 105 -102 0 -5 -37 -68 -82 -139 l-81 -130 17 -60 c48 -172 133 -259
255 -259 181 0 261 199 232 575 -29 372 -105 555 -246 594 -49 13 -69 13 -118
-2z"/>
<path d="M2355 1861 c-51 -26 -75 -66 -75 -125 0 -111 89 -188 243 -211 39 -6
47 -4 56 13 15 29 -6 48 -63 55 -129 18 -212 119 -156 190 17 21 30 27 62 27
33 0 46 -6 72 -35 35 -37 63 -45 73 -19 16 42 -57 111 -128 120 -33 4 -54 0
-84 -15z"/>
<path d="M3035 1572 c-22 -10 -80 -53 -130 -95 -114 -97 -210 -151 -309 -177
-170 -43 -290 -17 -494 109 -76 47 -122 56 -189 36 -59 -18 -123 -80 -143
-139 -20 -62 -9 -166 23 -214 63 -96 255 -218 411 -262 333 -94 721 -4 1009
235 83 69 123 122 143 193 32 107 -12 232 -104 296 -56 39 -154 47 -217 18z
m162 -61 c60 -28 96 -86 101 -165 5 -77 -14 -120 -86 -190 l-50 -48 -25 38
c-13 22 -59 95 -101 163 l-77 124 23 25 c28 30 114 72 148 72 14 0 44 -9 67
-19z m-1157 -139 c21 -10 34 -24 34 -34 -2 -20 -146 -278 -155 -278 -17 0 -60
45 -78 83 -27 56 -27 102 2 157 41 82 120 111 197 72z m974 -151 l96 -155 -43
-28 c-54 -37 -172 -98 -190 -98 -14 0 -122 353 -109 358 4 1 37 22 72 46 36
24 68 41 71 37 4 -3 50 -75 103 -160z m-746 29 c6 0 12 -6 12 -12 0 -16 -80
-309 -88 -325 -5 -8 -25 -4 -72 16 -93 39 -154 79 -142 94 5 7 43 73 85 148
l77 136 57 -28 c32 -16 64 -29 71 -29z m485 -164 c40 -137 47 -170 36 -177
-14 -8 -115 -32 -192 -44 l-37 -6 2 182 3 182 60 17 c33 10 64 17 70 16 5 -2
31 -78 58 -170z m-264 119 c2 -3 7 -82 9 -175 l5 -170 -58 0 c-32 0 -87 5
-123 11 -75 13 -74 -7 -16 208 l39 143 69 -6 c39 -4 72 -9 75 -11z"/>
</g>
</svg>
